<mxfile host="app.diagrams.net" modified="2024-06-06T06:41:53.199Z" agent="Mozilla/5.0 (Windows NT 10.0; Win64; x64) AppleWebKit/537.36 (KHTML, like Gecko) Chrome/125.0.0.0 Safari/537.36" version="24.4.14" etag="rSXllJFkh9AaP9TfE7M8" type="github">
  <diagram name="Страница — 1" id="Wkc5-bJJR7Uzn5kul-WM">
    <mxGraphModel>
      <root>
        <mxCell id="0" />
        <mxCell id="1" parent="0" />
      </root>
    </mxGraphModel>
  </diagram>
</mxfile>
